<svg xmlns="http://www.w3.org/2000/svg" version="1.1" xmlns:xlink="http://www.w3.org/1999/xlink" xmlns:svgjs="http://svgjs.dev/svgjs" width="2000" height="2250" viewBox="0 0 2000 2250"><g transform="matrix(1,0,0,1,0.00014687500004129106,0)"><svg viewBox="0 0 320 360" data-background-color="#ffffff" preserveAspectRatio="xMidYMid meet" height="2250" width="2000" xmlns="http://www.w3.org/2000/svg" xmlns:xlink="http://www.w3.org/1999/xlink"><g id="tight-bounds" transform="matrix(1,0,0,1,0.000023499999997511622,0)"><svg viewBox="0 0 320 360" height="360" width="320"><g><svg></svg></g><g><svg viewBox="0 0 320 360" height="360" width="320"><g><path transform="translate(-74.99272,-51.79039) scale(4.65793,4.65793)" d="M20.6 59.9l0.8 1-0.4-1.3c-0.1-0.6-0.8 0.1-0.4 0.3M21.5 59.3c0.3 0.5 0.6 1 0.6 1.5 0 0.7 0.6 1 1.1 1.2-0.7-0.8-1.1-3-1.7-2.7M59.9 16.9c1.7 0 3.3-0.2 5.1 0.2 4.4 1.1 8.1 3.3 10.6 6.4l7 11.2c0.3 2.8 0.9 5.9 0.8 9.3 0.7 0 0.6-1 1.4-1.2-0.8 2-1.2 4.5-1.4 7.4-0.5-1.6 0-4 0.1-5.3-0.7 1.1-1.1 0.3-1.1-0.2 0.1-0.8-0.3-0.7-0.6-1-1.1-1-1.8-2.1-2.6-3.8 0.5-1.3 0.6-3.2-1-4.2-0.5-0.3-1.1-0.8-1.4-1.6-0.4-1.1-1.1-2.4-0.9-4.1 0.1-0.5-1.5 1.1-2.4 0.4-3.9-2.7-7.8-5.8-12.5-8.4-2.5 0-4.3-0.9-5.2-2-0.8-1-0.2-2.3 1-2.4 0.7 0 1.5-0.2 2.1 0.2 0.1-0.4 0.5-0.9 1-0.9M50 14.6l0.2 0.1c1 0.2 1.5 1.6 2.6 1.1 0 0.7 0.1 1.4-0.1 1.9-0.3 0.8-1.2 0.8-1.9 0.8-6.7-0.4-10.6 2.4-14.7 4.8-1.1 0.7-2.3 1.2-3.2 2.1-4.3 4-9 7.7-10.1 15.1l-0.9 8.2c-0.1 0.9-1.1 1.8-0.9 2.9l0.7 4.9c-0.7-0.7-1.1 0.2-0.9 0.6 0.1 0.3 0.5 1.3 1.1 0.4 0.8 1.5 1.6 4.4 2.7 5.7 3.4 4 7.8 7.6 11.4 11.2 0.9-0.2 1.6-0.2 1.8-0.8 0.3 0.6-0.3 1.2-0.8 1.3 1.6 1 3.4 1.9 5.8 2.1 3.1 0.2 6 0.7 8.7 1.4 1.4-0.4 2.8-0.6 4.3-0.7 0.5 0 0.8-0.8 1.4-1l0.1-1c0.6 0.9 0.5-0.3 0.1-0.9 0.7 0.6 0.9 1.1 1.2 1.5 0-0.3 0.8-1.4 0.8-0.1l0.2-1.3c0.3-0.2 0.4 1.1 0.7 0.2 0.3-0.9 0.9-0.2 1.5-0.5-0.2 0.4-0.1 1.2 0.6 0.7l0.8-0.7c0.5 1.2 1.3 0.7 1.7 0.5 4.4-2.8 8.8-6.1 13-9.4l-0.1 1.3 0.5-1.6c0.5 0.5 0.9 0.1 1.1-0.2 0.6-1 1.4-2 2.7-2.9-1.6 4.3-3.5 7.7-5.9 10.5l-1 1.2c0 0.7-0.2 1.6-1 1.7-0.4 0.1-1.2-0.2-1.8 0.4-0.3 0.4 0.7 1.2-0.1 0.6-0.7-0.5-1.4 0-2.2 0.2-0.6 0.2 0.4 0.8 0.6 1.2 0.2 0.4 0.4 0.8 0.3 1.3l-1.1-1.2c-1.3 0.7-2.1 2-3.2 3-0.5 0.4-0.3 1.1-0.3 1.7-0.7 0-1.5-0.2-1.9 0.2-0.3 0.4-0.2 1-0.2 1.6-1-0.1-1.1-1.6-2-1.3-0.9 0.2-1.9 0.3-2.7 0.8 0.6 1.2-1 0.5-0.8 0.7-1.5-0.9-2.8-1.6-4.4-1-3.4-1.1-7.6-0.6-10.7-0.2 0-0.5 0.1-1-0.1-1.1-0.2 0.5-0.8 0.3-0.7 0.3-1.9-1.3-3.8-2.1-5.8-3.2-1.8 0.2-3.5-0.7-4-1.2-1.4-1.3-3-0.6-4.3-0.9-2.8-0.7-3.8-3.6-4.1-5.6-0.2-1-1-1.4-1.3-1.3-1.3-4.2-3.3-8-4.9-11.9-0.4-1-0.3-2-0.3-3.1 0.5 0.2 1 0.1 0.9-0.6-0.5-3.3-1.7-5.8-3-8.2 0.7-3.4 0.8-7.4 2.4-10.4 1.4-2.7 4-4.1 5.8-6.4 0.6-0.8 0.6-1.9 1.2-2.6 2-2 4-4.1 6.2-5.9 1-0.8 2.2 0 3.7-0.3 0.5-1.8 2.5-3.4 4.4-2.9 0.8 0.2 2.4-1.9 2.9-2.1 0.8-0.3 0.4 0.8 0.4 1.5 1.9-1.5 4.5-2.3 6.9-3.2" fill="#35185a" fill-rule="nonzero" stroke="none" stroke-width="1" stroke-linecap="butt" stroke-linejoin="miter" stroke-miterlimit="10" stroke-dasharray="" stroke-dashoffset="0" font-family="none" font-weight="none" font-size="none" text-anchor="none" style="mix-blend-mode: normal" data-fill-palette-color="tertiary"></path></g><g transform="matrix(1,0,0,1,109.76523664259526,90)"><svg viewBox="0 0 100.46952671480948 180" height="180" width="100.46952671480948"><g><svg viewBox="0 0 100.46952671480948 180" height="180" width="100.46952671480948"><g><svg viewBox="0 0 175.5 314.42369674608557" height="180" width="100.46952671480948"><g transform="matrix(1,0,0,1,0,134.42369674608557)"><svg viewBox="0 0 175.5 180" height="180" width="175.5"><g id="textblocktransform"><svg viewBox="0 0 175.5 180" height="180" width="175.5" id="textblock"><g><svg viewBox="0 0 175.5 180" height="180" width="175.5"><g transform="matrix(1,0,0,1,0,0)"><svg width="175.5" viewBox="2.9 -36 35.1 36" height="180" data-palette-color="#35185a"><path d="M38-36L36.6-28.2 24.3-28.2 19.35 0 10.3 0 15.25-28.2 2.9-28.2 4.3-36 38-36Z" opacity="1" transform="matrix(1,0,0,1,0,0)" fill="#35185a" class="wordmark-text-0" data-fill-palette-color="primary" id="text-0"></path></svg></g></svg></g></svg></g></svg></g><g transform="matrix(1,0,0,1,33.5205,0)"><svg viewBox="0 0 108.459 108.15737674608557" height="108.15737674608557" width="108.459"><g><svg xmlns="http://www.w3.org/2000/svg" xmlns:xlink="http://www.w3.org/1999/xlink" version="1.1" x="0" y="0" viewBox="5.958033923305141 6.08 88.08596607669486 87.841" enable-background="new 0 0 100 100" xml:space="preserve" height="108.15737674608557" width="108.459" class="icon-icon-0" data-fill-palette-color="accent" id="icon-0"><path d="M87.921 64.017c-1.854-1.63-17.356-7.408-25.238-10.109 3.012-3.726 4.971-8.288 5.784-11.438 1.18-1.17 2.043-3.33 2.118-5.423 0.064-1.801-0.465-3.362-1.501-4.468 0.006-0.536 3.317-7.547 0.336-15.516C66.111 8.218 59.389 6.08 55.611 6.08c-4.634 0-8.772 2.64-10.726 4.118-0.989-0.935-2.609-2.065-4.653-2.065-3.293 0-6.983 2.111-9.502 7.698-3.466 7.691-0.566 14.727 0.305 17.193-0.927 0.987-1.425 2.306-1.42 3.814 0.006 2.079 1.004 4.436 2.349 5.687 0.552 2.109 2.108 7.061 5.408 11.383-16.008 6.026-24.514 9.463-25.291 10.22-1.808 1.76-4.854 15.645-6.08 20.673-0.11 0.45-0.006 0.926 0.28 1.291 0.287 0.365 0.724 0.577 1.188 0.577h12.229l1.472 6.095c0.164 0.679 0.771 1.157 1.468 1.157H77.87c0.698 0 1.305-0.478 1.468-1.156l1.472-6.096h11.703c0.007 0 0.013 0 0.02 0 0.835 0 1.511-0.677 1.511-1.511C94.044 84.976 89.842 65.705 87.921 64.017zM34.775 41.32c-0.088-0.364-0.307-0.683-0.616-0.894-0.604-0.413-1.524-2.058-1.524-3.597 0-2.019 1.304-2.066 1.304-2.066 0.307-0.028 2.688-4.897 3.539-7.753 0.737-2.474 1.049-4.361 1.175-5.639 2.111 1.744 5.034 3.768 11.894 3.72 6.507-0.046 10.276-4.721 11.031-5.394 2.606 3.724 4.423 14.985 4.48 15.066 0.046 0.067 1.597 0.063 1.507 2.175-0.073 1.728-0.887 3.16-1.331 3.477-0.302 0.215-0.514 0.535-0.596 0.897-0.714 3.15-4.751 16.529-15.618 16.529C38.942 57.841 35.193 43.058 34.775 41.32zM76.681 90.899H23.826l-4.104-18.849h61.063L76.681 90.899z" fill="#35185a" data-fill-palette-color="accent"></path></svg></g></svg></g><g></g></svg></g></svg></g></svg></g></svg></g><defs></defs></svg><rect width="320" height="360" fill="none" stroke="none" visibility="hidden"></rect></g></svg></g></svg>